<?xml version="1.0" encoding="iso-8859-1"?>
<!-- Generator: Adobe Illustrator 25.2.3, SVG Export Plug-In . SVG Version: 6.00 Build 0)  -->
<svg fill="#FFFFFF" version="1.1" baseProfile="basic" id="Layer_1"
	 xmlns="http://www.w3.org/2000/svg" xmlns:xlink="http://www.w3.org/1999/xlink" x="0px" y="0px" viewBox="0 0 48 48"
	 xml:space="preserve">
<path style="fill:none;stroke:#000000;stroke-width:2;stroke-linecap:round;stroke-linejoin:round;stroke-miterlimit:10;" d="
	M26.706,39.819l-0.008-10.561h5.176l0.813-5.258h-5.989l0.009-2.83c0-2.184,0.714-4.121,2.757-4.121h3.283V12.46
	c-0.577-0.078-1.797-0.248-4.102-0.248c-4.814,0-7.636,2.542-7.636,8.334L21,24h-4.949v5.258h4.948l0.008,14.52
	C11.381,42.333,4,34.028,4,24C4,12.954,12.954,4,24,4s20,8.954,20,20c0,10.128-7.528,18.498-17.294,19.819"/>
</svg>